<svg xmlns="http://www.w3.org/2000/svg" width="43.506" height="35.379" viewBox="0 0 43.506 35.379">
    <defs>
        <filter id="8akq3rog5a" x="0" y="1.25" width="43.506" height="34.129" filterUnits="userSpaceOnUse">
            <feOffset dy="3"/>
            <feGaussianBlur stdDeviation="3" result="blur"/>
            <feFlood flood-opacity=".161"/>
            <feComposite operator="in" in2="blur"/>
            <feComposite in="SourceGraphic"/>
        </filter>
    </defs>
    <path data-name="사각형 6298" transform="translate(6.931)" style="fill:#fff" d="M0 0h30v30H0z"/>
    <g style="filter:url(#8akq3rog5a)">
        <path data-name="패스 5474" d="M19.275 15.629H4.689A4.683 4.683 0 0 1 3.243 6.49a7.813 7.813 0 0 1 14.7-2.146 5.352 5.352 0 0 1 1.332-.176 5.731 5.731 0 0 1 0 11.461zM10.94 1.042a6.776 6.776 0 0 0-6.713 5.923.521.521 0 0 1-.394.442 3.64 3.64 0 0 0 .855 7.18h14.587a4.689 4.689 0 1 0 0-9.377 4.6 4.6 0 0 0-1.454.256.523.523 0 0 1-.643-.292 6.764 6.764 0 0 0-6.238-4.132zm0 0" transform="translate(9.251 7.5)" style="fill:#c7c7c7;stroke:#c6c7c6;stroke-width:.5px"/>
    </g>
</svg>
