<svg xmlns="http://www.w3.org/2000/svg" width="30" height="30" viewBox="0 0 30 30">
    <g transform="translate(-903 -349)">
        <circle data-name="타원 154" cx="15" cy="15" r="15" transform="translate(903 349)" style="fill:#fff"/>
        <path data-name="Icon metro-sun" d="M19.463 11.282A7.538 7.538 0 1 0 27 18.82a7.548 7.548 0 0 0-7.538-7.538zm0 12.923a5.385 5.385 0 1 1 5.385-5.385 5.384 5.384 0 0 1-5.385 5.38zm0-15.077a1.077 1.077 0 0 0 1.077-1.077V5.9a1.077 1.077 0 1 0-2.154 0v2.151a1.077 1.077 0 0 0 1.077 1.077zm0 19.385a1.077 1.077 0 0 0-1.077 1.077v2.154a1.077 1.077 0 1 0 2.154 0v-2.155a1.077 1.077 0 0 0-1.077-1.077zm8.376-16.546 1.523-1.523a1.077 1.077 0 0 0-1.524-1.524l-1.523 1.523a1.077 1.077 0 0 0 1.523 1.523zM11.087 25.674 9.564 27.2a1.077 1.077 0 0 0 1.523 1.523L12.61 27.2a1.077 1.077 0 0 0-1.523-1.523zM9.77 18.82a1.077 1.077 0 0 0-1.077-1.077H6.54a1.077 1.077 0 0 0 0 2.154h2.154A1.077 1.077 0 0 0 9.77 18.82zm22.615-1.077h-2.153a1.077 1.077 0 0 0 0 2.154h2.154a1.077 1.077 0 0 0 0-2.154zm-21.3-5.777a1.077 1.077 0 0 0 1.523-1.523L11.086 8.92a1.077 1.077 0 0 0-1.523 1.523zM27.84 25.673a1.077 1.077 0 0 0-1.523 1.527l1.523 1.523a1.077 1.077 0 1 0 1.523-1.523z" transform="translate(899.037 345.68)" style="fill:#ffa900;stroke:#ffa900;stroke-width:.4px"/>
    </g>
</svg>
